<?xml version="1.0" ?><svg viewBox="0 0 32 32" xmlns="http://www.w3.org/2000/svg"><title/><g data-name="Layer 2" id="Layer_2"><path d="M28,3.5H22a.5.5,0,0,0-.5.5V5.21h-1.9L18.07,3.65a.49.49,0,0,0-.36-.15H9.14a.59.59,0,0,0-.22,0L5.49,5.27a.5.5,0,0,0-.27.36L3.51,15.92a.51.51,0,0,0,0,.3l1.72,3.43a.49.49,0,0,0,.44.28L12,20l.06,3,.86,5.14a.5.5,0,0,0,.49.42H16a.49.49,0,0,0,.49-.39l1.66-7.52,2.28-1.52h1.1v.42a.5.5,0,0,0,.5.5h6a.5.5,0,0,0,.5-.5V4A.5.5,0,0,0,28,3.5ZM21.5,18.07H20.29a.47.47,0,0,0-.28.09l-2.57,1.71a.45.45,0,0,0-.21.31L15.61,27.5H13.85l-.78-4.65L13,19.48a.51.51,0,0,0-.5-.49L6,18.93l-1.5-3L6.17,6.05,9.26,4.5h8.25l1.57,1.57a.5.5,0,0,0,.35.14H21.5Zm6,.92h-5V4.5h5Z"/><path d="M24.57,6.21h1.22V8.29a.5.5,0,0,0,.5.5.51.51,0,0,0,.5-.5V5.71a.51.51,0,0,0-.5-.5H24.57a.5.5,0,0,0-.5.5A.5.5,0,0,0,24.57,6.21Z"/></g></svg>