<?xml version="1.0" ?><svg style="enable-background:new 0 0 48 48;" version="1.1" viewBox="0 0 48 48" xml:space="preserve" xmlns="http://www.w3.org/2000/svg" xmlns:xlink="http://www.w3.org/1999/xlink"><style type="text/css">
	.st0{display:none;}
	.st1{fill:none;stroke:#303030;stroke-width:0.7;stroke-linecap:round;stroke-linejoin:round;stroke-miterlimit:10;}
	.st2{fill:#303030;}
</style><g class="st0" id="Padding__x26__Artboard"/><g id="Icons"><g><path class="st1" d="M25.11173,20.50324v-3.98607c0-0.40699,0.4429-0.64639,0.77806-0.43093l10.05496,6.3442    c0.32319,0.20349,0.32319,0.65836,0,0.86185l-5.55417,3.50727l-1.99902,1.26884l-2.50177,1.58006    c-0.33517,0.21546-0.77806-0.03591-0.77806-0.43093v-3.47135V25.2195"/><path class="st1" d="M30.39058,26.79956l-1.99902,1.26884l-2.50177,1.58006c-0.33517,0.21546-0.77806-0.03591-0.77806-0.43093    v-3.47135l0-0.52669c-2.75963,0.11319-6.12587-0.38334-8.40341,0.6548c-2.10653,0.9602-3.7986,2.74677-4.57096,4.92974    c-0.13733,0.38815-0.24592,0.78643-0.3245,1.19058v-3.18407c0-1.20839,0.26234-2.41185,0.76792-3.50953    c0.49152-1.06715,1.20749-2.02766,2.08694-2.80647c0.88379-0.78265,1.92984-1.37865,3.05577-1.73436    c1.61888-0.51145,3.37815-0.44112,5.05179-0.33163c0.77695,0.05083,1.55759,0.07468,2.33645,0.07468"/><line class="st1" x1="29.21898" x2="32.21714" y1="20.2134" y2="22.12113"/><line class="st1" x1="28.13989" x2="27.45604" y1="19.3689" y2="18.90918"/></g></g></svg>