<svg width="95" height="21" viewBox="0 0 95 21" fill="none" xmlns="http://www.w3.org/2000/svg">
<path d="M29.3734 3.27916C29.0283 1.98829 28.0119 0.971914 26.7211 0.626874C24.3813 -2.32161e-06 15 0 15 0C15 0 5.61874 -2.32161e-06 3.27898 0.626874C1.98829 0.971914 0.971732 1.98829 0.626693 3.27916C0 5.61874 0 10.5002 0 10.5002C0 10.5002 0 15.3814 0.626693 17.7208C0.971732 19.0117 1.98829 20.0283 3.27898 20.3733C5.61874 21 15 21 15 21C15 21 24.3813 21 26.7211 20.3733C28.0119 20.0283 29.0283 19.0117 29.3734 17.7208C30.0004 15.3814 30.0004 10.5002 30.0004 10.5002C30.0004 10.5002 30.0004 5.61874 29.3734 3.27916V3.27916Z" fill="#ED1F24"/>
<path d="M11.9878 15.0173L19.7819 10.5173L11.9878 6.01709V15.0173Z" fill="white"/>
<path d="M46.8555 17.0256C47.0197 16.597 47.1022 15.8961 47.1022 14.9234V10.8256C47.1022 9.88176 47.0197 9.19168 46.8555 8.75532C46.6911 8.31934 46.4013 8.10107 45.9868 8.10107C45.5863 8.10107 45.3035 8.31934 45.1393 8.75532C44.9749 9.19168 44.8925 9.88176 44.8925 10.8256V14.9234C44.8925 15.8961 44.971 16.597 45.1286 17.0256C45.2857 17.4548 45.5716 17.6692 45.9868 17.6692C46.4013 17.6692 46.6911 17.4548 46.8555 17.0256V17.0256ZM43.5304 19.0854C42.9364 18.6854 42.5144 18.0629 42.2645 17.2187C42.0141 16.3752 41.8892 15.2523 41.8892 13.8506V11.9413C41.8892 10.5254 42.0319 9.38808 42.3182 8.53026C42.604 7.67207 43.0509 7.0463 43.659 6.65294C44.2668 6.25976 45.0641 6.06299 46.0511 6.06299C47.0238 6.06299 47.8031 6.26325 48.3896 6.66378C48.9759 7.06412 49.4051 7.69007 49.677 8.54073C49.9484 9.39212 50.0843 10.5254 50.0843 11.9413V13.8506C50.0843 15.2523 49.952 16.3789 49.6875 17.2297C49.4227 18.0809 48.9935 18.7029 48.4003 19.096C47.8065 19.4894 47.0023 19.686 45.9868 19.686C44.9423 19.686 44.1235 19.4857 43.5304 19.0854V19.0854Z" fill="#272727"/>
<path d="M89.4842 8.38306C89.3343 8.56917 89.2338 8.87306 89.184 9.29471C89.1337 9.71673 89.1092 10.3568 89.1092 11.215V12.1592H91.2755V11.215C91.2755 10.3712 91.2469 9.73106 91.1899 9.29471C91.1326 8.85873 91.0292 8.55154 90.8791 8.3724C90.7286 8.19364 90.4962 8.10416 90.1816 8.10416C89.8667 8.10416 89.6345 8.19731 89.4842 8.38306V8.38306ZM89.1092 13.9184V14.5835C89.1092 15.4275 89.1337 16.0601 89.184 16.4819C89.2338 16.904 89.3374 17.2117 89.4951 17.4048C89.6525 17.5977 89.8952 17.6945 90.2246 17.6945C90.6676 17.6945 90.9718 17.5226 91.1363 17.1794C91.3005 16.8362 91.39 16.2642 91.4043 15.463L93.9574 15.6133C93.9717 15.7281 93.9789 15.885 93.9789 16.0851C93.9789 17.301 93.6465 18.2093 92.9813 18.8099C92.3165 19.4105 91.3757 19.7111 90.1601 19.7111C88.7014 19.7111 87.6785 19.2535 87.0923 18.3378C86.5056 17.4228 86.2124 16.0068 86.2124 14.09V11.7941C86.2124 9.82054 86.5165 8.37975 87.1244 7.47141C87.7322 6.56306 88.7728 6.10889 90.2461 6.10889C91.2612 6.10889 92.041 6.29482 92.5844 6.66668C93.1277 7.03891 93.5104 7.61802 93.7322 8.40456C93.9539 9.19127 94.0649 10.2784 94.0649 11.6655V13.9184H89.1092V13.9184Z" fill="#272727"/>
<path d="M36.3468 13.6341L32.9785 1.46973H35.9176L37.0975 6.98319C37.3981 8.34241 37.6196 9.50081 37.7626 10.4588H37.8486C37.9485 9.77235 38.1703 8.6213 38.5135 7.00469L39.7364 1.46973H42.6756L39.2646 13.6341V19.4698H36.3468V13.6341Z" fill="#272727"/>
<path d="M59.6497 6.33887V19.4901H57.3327L57.0751 17.8813H57.0108C56.3814 19.0971 55.4374 19.7046 54.1789 19.7046C53.3065 19.7046 52.6629 19.4188 52.2481 18.8466C51.8332 18.2747 51.626 17.3805 51.626 16.165V6.33887H54.5866V15.9932C54.5866 16.5798 54.651 16.9982 54.7797 17.248C54.9084 17.4986 55.123 17.6238 55.4232 17.6238C55.6808 17.6238 55.9276 17.5451 56.1633 17.3877C56.3994 17.2302 56.5745 17.0303 56.6891 16.7871V6.33887H59.6497V6.33887Z" fill="#272727"/>
<path d="M74.8533 6.33887V19.4901H72.5363L72.2787 17.8813H72.2148C71.5848 19.0971 70.641 19.7046 69.3825 19.7046C68.51 19.7046 67.8665 19.4188 67.4517 18.8466C67.0366 18.2747 66.8296 17.3805 66.8296 16.165V6.33887H69.7902V15.9932C69.7902 16.5798 69.8545 16.9982 69.9831 17.248C70.1121 17.4986 70.3267 17.6238 70.6269 17.6238C70.8844 17.6238 71.1312 17.5451 71.3669 17.3877C71.603 17.2302 71.7781 17.0303 71.8927 16.7871V6.33887H74.8533V6.33887Z" fill="#272727"/>
<path d="M67.7038 3.8512H64.7646V19.4697H61.8683V3.8512H58.9292V1.46973H67.7038V3.8512Z" fill="#272727"/>
<path d="M81.912 13.8076C81.912 14.7662 81.8723 15.517 81.7939 16.0603C81.7153 16.6042 81.583 16.9904 81.397 17.2189C81.2111 17.4478 80.9603 17.5621 80.6463 17.5621C80.4027 17.5621 80.1775 17.505 79.9704 17.3905C79.7626 17.276 79.5951 17.1044 79.4661 16.8755V9.40959C79.5662 9.05224 79.7378 8.75883 79.9811 8.52991C80.2243 8.30153 80.4885 8.1867 80.7748 8.1867C81.0752 8.1867 81.3074 8.30484 81.472 8.54056C81.6363 8.77665 81.7509 9.1735 81.8154 9.73166C81.8797 10.2893 81.912 11.083 81.912 12.1128V13.8076V13.8076ZM84.6259 8.44337C84.4467 7.61403 84.1572 7.01324 83.7568 6.64101C83.3563 6.26933 82.8055 6.0834 82.1049 6.0834C81.5615 6.0834 81.0537 6.23736 80.5818 6.54474C80.1099 6.8523 79.745 7.25631 79.4876 7.75678H79.4659L79.4661 0.827148H76.6128V19.492H79.0584L79.359 18.2478H79.4231C79.6518 18.6911 79.995 19.0415 80.4529 19.2991C80.9105 19.5565 81.4185 19.6853 81.9763 19.6853C82.9773 19.6853 83.7138 19.2237 84.186 18.3014C84.658 17.3789 84.8939 15.9382 84.8939 13.9783V11.8976C84.8939 10.4245 84.8044 9.27308 84.6259 8.44337V8.44337Z" fill="#272727"/>
</svg>
